Coordinates
version=1
nRows=22
nColumns=24
inDegrees=yes

Units are S.I. units (second, meters, Newtons, ...)
Angles are in degrees.

endheader
time	pelvis_tilt	pelvis_list	pelvis_rotation	pelvis_tx	pelvis_ty	pelvis_tz	hip_flexion_r	hip_adduction_r	hip_rotation_r	knee_angle_r	ankle_angle_r	subtalar_angle_r	mtp_angle_r	hip_flexion_l	hip_adduction_l	hip_rotation_l	knee_angle_l	ankle_angle_l	subtalar_angle_l	mtp_angle_l	lumbar_extension	lumbar_bending	lumbar_rotation
      0.01000000	     45.49225004	      1.40178339	     -1.76849076	     -0.82760729	      1.01917265	     -0.29445409	     27.87601061	    -11.40602683	      8.74530051	      5.63801830	    -20.95201619	     11.72146371	      0.00000000	     15.79172771	    -11.82888951	     -1.61286398	    -61.58690064	    -21.41468618	     16.43231390	      0.00000000	    -37.35625622	     -9.28493029	     -0.13942175
      0.02000000	     45.48008830	      1.39997932	     -1.75854624	     -0.82753045	      1.01935655	     -0.29453389	     27.89142352	    -11.39752570	      8.74373214	      5.63192609	    -20.95475098	     11.69599102	      0.00000000	     15.80003018	    -11.82764564	     -1.59905206	    -61.57130424	    -21.34740800	     16.38409339	      0.00000000	    -37.34544558	     -9.29039228	     -0.12614629
      0.03000000	     45.46393093	      1.39681847	     -1.75175891	     -0.82751127	      1.01937697	     -0.29451733	     27.90750317	    -11.38611019	      8.73607291	      5.62248449	    -20.95821672	     11.66328422	      0.00000000	     15.82345063	    -11.83230315	     -1.58051699	    -61.56261464	    -21.28420436	     16.33841421	      0.00000000	    -37.32655359	     -9.28769353	     -0.11391991
      0.04000000	     45.43735791	      1.38501869	     -1.73984759	     -0.82752096	      1.01927789	     -0.29446451	     27.93013817	    -11.36906245	      8.72169604	      5.61115417	    -20.96249123	     11.62174066	      0.00000000	     15.86060556	    -11.84238637	     -1.55888453	    -61.56612744	    -21.22953308	     16.29879621	      0.00000000	    -37.29754025	     -9.27301046	     -0.10411112
      0.05000000	     45.39740031	      1.36132046	     -1.71728167	     -0.82751968	      1.01915513	     -0.29444460	     27.96333279	    -11.34504330	      8.70068049	      5.59843431	    -20.96762758	     11.57040008	      0.00000000	     15.91572301	    -11.86174666	     -1.53274233	    -61.58454851	    -21.18832010	     16.26944601	      0.00000000	    -37.25708256	     -9.24309986	     -0.09849712
      0.06000000	     45.34497932	      1.32642390	     -1.68165901	     -0.82749304	      1.01906686	     -0.29446764	     28.00812869	    -11.31496621	      8.67458002	      5.58407922	    -20.97352514	     11.50984615	      0.00000000	     15.99531886	    -11.89633313	     -1.49860760	    -61.61695286	    -21.16418368	     16.25395268	      0.00000000	    -37.20568372	     -9.19717805	     -0.09863881
      0.07000000	     45.28301454	      1.28241630	     -1.63216438	     -0.82746652	      1.01897886	     -0.29447035	     28.06333842	    -11.28108422	      8.64648379	      5.56815545	    -20.97982105	     11.44245667	      0.00000000	     16.10149829	    -11.94911693	     -1.45426965	    -61.66012667	    -21.15817465	     16.25420479	      0.00000000	    -37.14592554	     -9.13776053	     -0.10521032
      0.08000000	     45.21539914	      1.23219647	     -1.57075123	     -0.82747138	      1.01883124	     -0.29439582	     28.12580497	    -11.24558056	      8.62010810	      5.55145635	    -20.98592802	     11.37198003	      0.00000000	     16.22827643	    -12.01670864	     -1.40121186	    -61.70985993	    -21.16820590	     16.26969703	      0.00000000	    -37.08188325	     -9.07038772	     -0.11758827
      0.09000000	     45.14684956	      1.18013302	     -1.50452498	     -0.82750041	      1.01863476	     -0.29427165	     28.19050284	    -11.21013165	      8.59849923	      5.53510843	    -20.99125359	     11.30271250	      0.00000000	     16.36232646	    -12.08970558	     -1.34466412	    -61.76150810	    -21.18933021	     16.29739248	      0.00000000	    -37.01816492	     -9.00245644	     -0.13387347
      0.10000000	     45.08260649	      1.13178227	     -1.44457699	     -0.82752058	      1.01846010	     -0.29417399	     28.25159308	    -11.17639039	      8.58327981	      5.52008646	    -20.99550605	     11.23869819	      0.00000000	     16.48698173	    -12.15649611	     -1.29175255	    -61.81030829	    -21.21486151	     16.33221353	      0.00000000	    -36.95916066	     -8.94161346	     -0.15129624
      0.11000000	     45.02778905	      1.09233170	     -1.40076139	     -0.82751977	      1.01835037	     -0.29412899	     28.30405885	    -11.14639401	      8.57481507	      5.50700792	    -20.99890451	     11.18321740	      0.00000000	     16.58787172	    -12.20822591	     -1.24909617	    -61.85179252	    -21.23799135	     16.36803885	      0.00000000	    -36.90864879	     -8.89415147	     -0.16686354
      0.12000000	     44.98651547	      1.06515645	     -1.37699118	     -0.82750798	      1.01829685	     -0.29410700	     28.34470616	    -11.12215154	      8.57285558	      5.49608701	    -21.00213472	     11.13853723	      0.00000000	     16.65761134	    -12.24190666	     -1.22101571	    -61.88251934	    -21.25342459	     16.39898121	      0.00000000	    -36.86945052	     -8.86366046	     -0.17817170
      0.13000000	     44.96054734	      1.05098637	     -1.37028507	     -0.82749629	      1.01827284	     -0.29408460	     28.37232949	    -11.10473663	      8.57695690	      5.48721155	    -21.00603666	     11.10578084	      0.00000000	     16.69675528	    -12.26005359	     -1.20884628	    -61.90127105	    -21.25864307	     16.42068198	      0.00000000	    -36.84291790	     -8.85021999	     -0.18422973
      0.14000000	     44.94854686	      1.04758794	     -1.37348775	     -0.82749102	      1.01825986	     -0.29406007	     28.38760596	    -11.09397148	      8.58634223	      5.48017436	    -21.01119175	     11.08486752	      0.00000000	     16.71145070	    -12.26793741	     -1.21101861	    -61.90973708	    -21.25427801	     16.43118426	      0.00000000	    -36.82850158	     -8.85052177	     -0.18587290
      0.15000000	     44.94683238	      1.05064657	     -1.37953005	     -0.82749333	      1.01825156	     -0.29403271	     28.39275897	    -11.08878262	      8.59947737	      5.47482297	    -21.01766026	     11.07459930	      0.00000000	     16.71026313	    -12.27077013	     -1.22346500	    -61.91168653	    -21.24330887	     16.43101627	      0.00000000	    -36.82380976	     -8.85904131	     -0.18539116
      0.16000000	     44.95093099	      1.05570027	     -1.38434952	     -0.82750080	      1.01824643	     -0.29399935	     28.39088441	    -11.08753927	      8.61393946	      5.47098633	    -21.02501194	     11.07299053	      0.00000000	     16.70160078	    -12.27206755	     -1.24045308	    -61.91115002	    -21.22949300	     16.42251785	      0.00000000	    -36.82523978	     -8.86981869	     -0.18546862
      0.17000000	     44.95686756	      1.05970199	     -1.38712964	     -0.82750920	      1.01824482	     -0.29396706	     28.38514304	    -11.08828647	      8.62682926	      5.46836177	    -21.03257906	     11.07781483	      0.00000000	     16.69201986	    -12.27321783	     -1.25599988	    -61.91089352	    -21.21582284	     16.40877109	      0.00000000	    -36.82896759	     -8.87818496	     -0.18794394
      0.18000000	     44.96177954	      1.06132701	     -1.38871557	     -0.82751598	      1.01824735	     -0.29395268	     28.37814892	    -11.08923222	      8.63550535	      5.46656355	    -21.03974311	     11.08714495	      0.00000000	     16.68534829	    -12.27401865	     -1.26550784	    -61.91195215	    -21.20369487	     16.39259408	      0.00000000	    -36.83197639	     -8.88185537	     -0.19298830
      0.19000000	     44.96419856	      1.06048470	     -1.38992749	     -0.82752201	      1.01825217	     -0.29396204	     28.37171969	    -11.08939429	      8.63830566	      5.46534015	    -21.04611227	     11.09959795	      0.00000000	     16.68265765	    -12.27378886	     -1.26698116	    -61.91406790	    -21.19302986	     16.37594686	      0.00000000	    -36.83276378	     -8.88097946	     -0.19910515
      0.20000000	     44.96403578	      1.05786289	     -1.39091471	     -0.82752858	      1.01825461	     -0.29397816	     28.36667018	    -11.08881437	      8.63499302	      5.46469822	    -21.05154733	     11.11417018	      0.00000000	     16.68301733	    -12.27233959	     -1.26140096	    -61.91645397	    -21.18307916	     16.35986396	      0.00000000	    -36.83150494	     -8.87725618	     -0.20393802
      0.21000000	     44.96223607	      1.05470228	     -1.39150400	     -0.82753038	      1.01825385	     -0.29398493	     28.36248358	    -11.08800687	      8.62680902	      5.46474612	    -21.05605744	     11.12982261	      0.00000000	     16.68469360	    -12.27018159	     -1.25220740	    -61.91840307	    -21.17335743	     16.34477590	      0.00000000	    -36.82963889	     -8.87274406	     -0.20545929
      0.22000000	     44.96028142	      1.05221686	     -1.39167377	     -0.82752082	      1.01825595	     -0.29398755	     28.35748759	    -11.08741050	      8.61614471	      5.46548811	    -21.05965570	     11.14514802	      0.00000000	     16.68589728	    -12.26807200	     -1.24408760	    -61.91973578	    -21.16425329	     16.33095165	      0.00000000	    -36.82901048	     -8.86897157	     -0.20294404
